# xmcd
#
# Track frame offsets:
#	150
#	11315
#	19627
#	34335
#	47562
#	56937
#	68830
#	77120
#	88962
#	99502
#	105485
#	117665
#	127282
#	138625
#
# Disc length: 2053 seconds
#
# Revision: 1
# Processed by: cddbd v1.5.2PL0 Copyright (c) Steve Scherf et al.
# Submitted via: audiograbber 1.83.01
#
DISCID=c608030e
DTITLE=Various Artist - Der Mai ist gekommen
DYEAR=1991
DGENRE=Volkstümlich Schlager
TTITLE0=Die Westfälischen Nachtigallen - Der Mai ist gekommen 1972
TTITLE1=Der Stuttgarter Liederkrantz - Ich habe den Frühling gesehen 1976
TTITLE2=Gitti and Erika - Waldeslust 1984
TTITLE3=Der Bielefelder Kirchenchor - Wer recht in Freuden wandern will 1984
TTITLE4=Ingeborg Hallstein and Erik Werba (Klavier) - Komm, lieber Mai, und mache
TTITLE4=1976
TTITLE5=Original Schwarzwaldfamilie Seitz - Wieder wird es Frühling 1974
TTITLE6=Heinz Hoppe - Der Lenz 1989
TTITLE7=Der Chor der Deutschen Weinstraße - Wandern, Wein und Sonnenschein 1976
TTITLE8=Helen Donath and Josef Protschka - Zwei Herzen im Dreivierteltakt 1985
TTITLE9=Der Kölner Kinderchor - Nun will der Lenz uns grüßen 1971
TTITLE10=E. Huberts fröhliche Dorfmusik - Frühlingswalzer 1974
TTITLE11=Wolfgang Anheisser - Kurz ist der Mai... 1972
TTITLE12=Fred Bertelmann - Es wird in hundert Jahren wieder so Frühling sein 19
TTITLE12=78
TTITLE13=Hubert Wolf and seine Original Musikanten mit dem Original Böhmerländer 
TTITLE13=Chor - Die Lieb blüht nicht nur im Mai 1976
EXTD=
EXTT0=
EXTT1=
EXTT2=
EXTT3=
EXTT4=
EXTT5=
EXTT6=
EXTT7=
EXTT8=
EXTT9=
EXTT10=
EXTT11=
EXTT12=
EXTT13=
PLAYORDER=
